<?xml version="1.0" encoding="UTF-8" standalone="no"?>
<!DOCTYPE svg PUBLIC "-//W3C//DTD SVG 20010904//EN"
"http://www.w3.org/TR/2001/REC-SVG-20010904/DTD/svg10.dtd">
<!-- Created with Inkscape (http://www.inkscape.org/) -->
<svg
   version="1.0"
   x="0.0000000"
   y="0.0000000"
   width="125.95000"
   height="125.95000"
   id="svg1"
   sodipodi:version="0.32"
   inkscape:version="0.38.1"
   sodipodi:docname="crsc-app-basket.svg"
   sodipodi:docbase="/mnt/win_d/Graphics/icons/basket"
   xmlns="http://www.w3.org/2000/svg"
   xmlns:inkscape="http://www.inkscape.org/namespaces/inkscape"
   xmlns:sodipodi="http://sodipodi.sourceforge.net/DTD/sodipodi-0.dtd"
   xmlns:xlink="http://www.w3.org/1999/xlink">
  <sodipodi:namedview
     id="base"
     pagecolor="#ffffff"
     bordercolor="#666666"
     borderopacity="1.0"
     inkscape:pageopacity="0.0"
     inkscape:pageshadow="2"
     inkscape:zoom="4.9119411"
     inkscape:cx="67.853442"
     inkscape:cy="43.680472"
     inkscape:window-width="1006"
     inkscape:window-height="689"
     inkscape:window-x="0"
     inkscape:window-y="48" />
  <defs
     id="defs2">
    <linearGradient
       x1="99.597000"
       y1="27.749901"
       x2="21.819700"
       y2="27.749901"
       id="defitem0"
       gradientUnits="userSpaceOnUse">
      <stop
         style="stop-color:#a5a5a5;stop-opacity:1.0000000;"
         offset="0.0000000"
         id="stop4" />
      <stop
         style="stop-color:#ffffff;stop-opacity:1.0000000;"
         offset="1.0000000"
         id="stop5" />
    </linearGradient>
    <linearGradient
       x1="11.125700"
       y1="40.099499"
       x2="104.75200"
       y2="40.099499"
       id="defitem1"
       gradientUnits="userSpaceOnUse">
      <stop
         style="stop-color:#ffdf00;stop-opacity:1.0000000;"
         offset="0.0000000"
         id="stop7" />
      <stop
         style="stop-color:#ff9000;stop-opacity:1.0000000;"
         offset="1.0000000"
         id="stop8" />
    </linearGradient>
    <linearGradient
       x1="11.854800"
       y1="64.663101"
       x2="104.84800"
       y2="64.663101"
       id="defitem2"
       gradientUnits="userSpaceOnUse">
      <stop
         style="stop-color:#ffdf00;stop-opacity:1.0000000;"
         offset="0.0000000"
         id="stop10" />
      <stop
         style="stop-color:#ff9000;stop-opacity:1.0000000;"
         offset="1.0000000"
         id="stop11" />
    </linearGradient>
    <linearGradient
       x1="30.502899"
       y1="81.021698"
       x2="60.128502"
       y2="55.232700"
       id="defitem3"
       gradientUnits="userSpaceOnUse">
      <stop
         style="stop-color:#ffffff;stop-opacity:1.0000000;"
         offset="0.0000000"
         id="stop13" />
      <stop
         style="stop-color:#ffffff;stop-opacity:0.0000000;"
         offset="1.0000000"
         id="stop14" />
    </linearGradient>
    <linearGradient
       x1="97.928001"
       y1="22.252501"
       x2="21.068501"
       y2="22.252501"
       id="defitem4"
       gradientUnits="userSpaceOnUse">
      <stop
         style="stop-color:#a5a5a5;stop-opacity:1.0000000;"
         offset="0.0000000"
         id="stop16" />
      <stop
         style="stop-color:#ffffff;stop-opacity:1.0000000;"
         offset="1.0000000"
         id="stop17" />
    </linearGradient>
    <linearGradient
       x1="19.594999"
       y1="27.792101"
       x2="101.37900"
       y2="27.792101"
       id="defitem5"
       gradientUnits="userSpaceOnUse">
      <stop
         style="stop-color:#a5a5a5;stop-opacity:1.0000000;"
         offset="0.0000000"
         id="stop19" />
      <stop
         style="stop-color:#ffffff;stop-opacity:1.0000000;"
         offset="1.0000000"
         id="stop20" />
    </linearGradient>
    <linearGradient
       x1="64.755302"
       y1="25.712400"
       x2="110.93200"
       y2="130.62399"
       id="defitem6"
       gradientUnits="userSpaceOnUse">
      <stop
         style="stop-color:#ffffff;stop-opacity:1.0000000;"
         offset="0.0000000"
         id="stop22" />
      <stop
         style="stop-color:#efefef;stop-opacity:1.0000000;"
         offset="0.25799999"
         id="stop23" />
      <stop
         style="stop-color:#cdcdcd;stop-opacity:1.0000000;"
         offset="0.73960000"
         id="stop24" />
      <stop
         style="stop-color:#c3c3c3;stop-opacity:1.0000000;"
         offset="0.85949999"
         id="stop25" />
    </linearGradient>
    <linearGradient
       x1="60.389801"
       y1="116.30300"
       x2="79.354897"
       y2="67.517403"
       id="defitem7"
       gradientUnits="userSpaceOnUse">
      <stop
         style="stop-color:#b3b3b3;stop-opacity:1.0000000;"
         offset="0.0000000"
         id="stop27" />
      <stop
         style="stop-color:#828282;stop-opacity:1.0000000;"
         offset="1.0000000"
         id="stop28" />
    </linearGradient>
    <linearGradient
       x1="79.514603"
       y1="82.517097"
       x2="130.13800"
       y2="18.255899"
       id="defitem8"
       gradientUnits="userSpaceOnUse">
      <stop
         style="stop-color:#ffffff;stop-opacity:1.0000000;"
         offset="0.0000000"
         id="stop30" />
      <stop
         style="stop-color:#e6e6e6;stop-opacity:1.0000000;"
         offset="0.50330001"
         id="stop31" />
      <stop
         style="stop-color:#d4d4d4;stop-opacity:1.0000000;"
         offset="1.0000000"
         id="stop32" />
    </linearGradient>
    <linearGradient
       x1="68.365402"
       y1="73.734200"
       x2="118.99000"
       y2="9.4719200"
       id="defitem9"
       gradientUnits="userSpaceOnUse">
      <stop
         style="stop-color:#ffffff;stop-opacity:1.0000000;"
         offset="0.0000000"
         id="stop34" />
      <stop
         style="stop-color:#e6e6e6;stop-opacity:1.0000000;"
         offset="0.50330001"
         id="stop35" />
      <stop
         style="stop-color:#d4d4d4;stop-opacity:1.0000000;"
         offset="1.0000000"
         id="stop36" />
    </linearGradient>
    <linearGradient
       x1="62.866600"
       y1="97.084396"
       x2="116.78800"
       y2="73.350800"
       id="defitem10"
       gradientUnits="userSpaceOnUse">
      <stop
         style="stop-color:#b3caff;stop-opacity:1.0000000;"
         offset="0.0000000"
         id="stop38" />
      <stop
         style="stop-color:#0052bc;stop-opacity:1.0000000;"
         offset="1.0000000"
         id="stop39" />
    </linearGradient>
    <radialGradient
       cx="89.610001"
       cy="32.573101"
       r="15.583500"
       fx="89.610001"
       fy="32.573101"
       id="defitem11"
       gradientUnits="userSpaceOnUse">
      <stop
         style="stop-color:#ffffff;stop-opacity:0.0000000;"
         offset="0.0000000"
         id="stop41" />
      <stop
         style="stop-color:#ffffff;stop-opacity:0.0000000;"
         offset="1.0000000"
         id="stop42" />
    </radialGradient>
    <linearGradient
       x1="91.409698"
       y1="41.617599"
       x2="80.945503"
       y2="27.787001"
       id="defitem12"
       gradientUnits="userSpaceOnUse">
      <stop
         style="stop-color:#ffffff;stop-opacity:1.0000000;"
         offset="0.0000000"
         id="stop44" />
      <stop
         style="stop-color:#cccccc;stop-opacity:1.0000000;"
         offset="1.0000000"
         id="stop45" />
    </linearGradient>
    <linearGradient
       x1="84.319199"
       y1="49.683201"
       x2="87.490402"
       y2="41.525299"
       id="defitem13"
       gradientUnits="userSpaceOnUse">
      <stop
         style="stop-color:#b3b3b3;stop-opacity:1.0000000;"
         offset="0.0000000"
         id="stop47" />
      <stop
         style="stop-color:#828282;stop-opacity:1.0000000;"
         offset="1.0000000"
         id="stop48" />
    </linearGradient>
    <linearGradient
       x1="85.781502"
       y1="23.774000"
       x2="45.193100"
       y2="34.420200"
       id="defitem14"
       gradientUnits="userSpaceOnUse">
      <stop
         style="stop-color:#a5a5a5;stop-opacity:1.0000000;"
         offset="0.0000000"
         id="stop50" />
      <stop
         style="stop-color:#ffffff;stop-opacity:1.0000000;"
         offset="1.0000000"
         id="stop51" />
    </linearGradient>
    <linearGradient
       x1="68.927399"
       y1="25.886000"
       x2="27.287701"
       y2="42.358799"
       id="defitem15"
       gradientUnits="userSpaceOnUse">
      <stop
         style="stop-color:#a5a5a5;stop-opacity:1.0000000;"
         offset="0.0000000"
         id="stop53" />
      <stop
         style="stop-color:#ffffff;stop-opacity:1.0000000;"
         offset="1.0000000"
         id="stop54" />
    </linearGradient>
    <linearGradient
       x1="74.806297"
       y1="18.759001"
       x2="36.551102"
       y2="57.944401"
       id="defitem16"
       gradientUnits="userSpaceOnUse">
      <stop
         style="stop-color:#b3b3b3;stop-opacity:1.0000000;"
         offset="0.0000000"
         id="stop56" />
      <stop
         style="stop-color:#828282;stop-opacity:1.0000000;"
         offset="1.0000000"
         id="stop57" />
    </linearGradient>
    <linearGradient
       x1="45.193699"
       y1="42.748402"
       x2="-18.549200"
       y2="80.890900"
       id="defitem17"
       gradientUnits="userSpaceOnUse">
      <stop
         style="stop-color:#ffffff;stop-opacity:0.0000000;"
         offset="0.0000000"
         id="stop59" />
      <stop
         style="stop-color:#ffffff;stop-opacity:1.0000000;"
         offset="1.0000000"
         id="stop61" />
    </linearGradient>
    <radialGradient
       cx="10.882900"
       cy="87.761703"
       r="11.140400"
       fx="10.882900"
       fy="87.761703"
       id="defitem18"
       gradientUnits="userSpaceOnUse">
      <stop
         style="stop-color:#ffffff;stop-opacity:0.0000000;"
         offset="0.0000000"
         id="stop63" />
      <stop
         style="stop-color:#ffffff;stop-opacity:0.0000000;"
         offset="1.0000000"
         id="stop64" />
    </radialGradient>
    <linearGradient
       x1="15.207300"
       y1="77.703796"
       x2="12.610400"
       y2="97.136299"
       id="defitem19"
       gradientUnits="userSpaceOnUse">
      <stop
         style="stop-color:#ffffff;stop-opacity:1.0000000;"
         offset="0.0000000"
         id="stop66" />
      <stop
         style="stop-color:#cc0000;stop-opacity:1.0000000;"
         offset="1.0000000"
         id="stop67" />
    </linearGradient>
    <linearGradient
       x1="23.591400"
       y1="73.303596"
       x2="17.194401"
       y2="79.856201"
       id="defitem20"
       gradientUnits="userSpaceOnUse">
      <stop
         style="stop-color:#b3b3b3;stop-opacity:1.0000000;"
         offset="0.0000000"
         id="stop69" />
      <stop
         style="stop-color:#828282;stop-opacity:1.0000000;"
         offset="1.0000000"
         id="stop70" />
    </linearGradient>
    <linearGradient
       x1="11.125700"
       y1="87.100502"
       x2="104.75200"
       y2="87.100502"
       id="defitem21"
       gradientUnits="userSpaceOnUse">
      <stop
         style="stop-color:#ffdf00;stop-opacity:1.0000000;"
         offset="0.0000000"
         id="stop72" />
      <stop
         style="stop-color:#ff9000;stop-opacity:1.0000000;"
         offset="1.0000000"
         id="stop73" />
    </linearGradient>
    <linearGradient
       x1="104.76600"
       y1="64.339401"
       x2="107.58800"
       y2="20.723301"
       id="defitem22"
       gradientUnits="userSpaceOnUse">
      <stop
         style="stop-color:#ffffff;stop-opacity:1.0000000;"
         offset="0.0000000"
         id="stop75" />
      <stop
         style="stop-color:#ffffff;stop-opacity:0.0000000;"
         offset="1.0000000"
         id="stop76" />
    </linearGradient>
    <linearGradient
       x1="15.589900"
       y1="63.121101"
       x2="18.494200"
       y2="20.532900"
       id="defitem23"
       gradientUnits="userSpaceOnUse">
      <stop
         style="stop-color:#ffffff;stop-opacity:1.0000000;"
         offset="0.0000000"
         id="stop78" />
      <stop
         style="stop-color:#ffffff;stop-opacity:0.0000000;"
         offset="1.0000000"
         id="stop79" />
    </linearGradient>
    <linearGradient
       x1="88.329002"
       y1="51.221001"
       x2="85.953598"
       y2="52.866299"
       id="defitem24"
       gradientUnits="userSpaceOnUse">
      <stop
         style="stop-color:#ffffff;stop-opacity:1.0000000;"
         offset="0.0000000"
         id="stop81" />
      <stop
         style="stop-color:#ffffff;stop-opacity:0.0000000;"
         offset="1.0000000"
         id="stop82" />
    </linearGradient>
    <linearGradient
       x1="81.272400"
       y1="53.569000"
       x2="82.794899"
       y2="51.185299"
       id="defitem25"
       gradientUnits="userSpaceOnUse">
      <stop
         style="stop-color:#ffffff;stop-opacity:1.0000000;"
         offset="0.0000000"
         id="stop84" />
      <stop
         style="stop-color:#ffffff;stop-opacity:0.0000000;"
         offset="1.0000000"
         id="stop85" />
    </linearGradient>
    <radialGradient
       cx="42.755699"
       cy="104.64000"
       r="21.837799"
       fx="43.139099"
       fy="104.33800"
       id="defitem26"
       gradientUnits="userSpaceOnUse">
      <stop
         style="stop-color:#ffffff;stop-opacity:1.0000000;"
         offset="0.0000000"
         id="stop87" />
      <stop
         style="stop-color:#ffffff;stop-opacity:0.0000000;"
         offset="1.0000000"
         id="stop88" />
    </radialGradient>
    <radialGradient
       cx="89.902802"
       cy="74.683296"
       r="20.662201"
       fx="89.902802"
       fy="74.683296"
       id="defitem27"
       gradientUnits="userSpaceOnUse">
      <stop
         style="stop-color:#ffffff;stop-opacity:1.0000000;"
         offset="0.0000000"
         id="stop90" />
      <stop
         style="stop-color:#ffffff;stop-opacity:0.0000000;"
         offset="1.0000000"
         id="stop91" />
    </radialGradient>
    <radialGradient
       cx="46.999100"
       cy="97.870102"
       r="49.695499"
       fx="47.110699"
       fy="97.303802"
       id="defitem28"
       gradientUnits="userSpaceOnUse">
      <stop
         style="stop-color:#ffffff;stop-opacity:1.0000000;"
         offset="0.0000000"
         id="stop93" />
      <stop
         style="stop-color:#ffffff;stop-opacity:0.0000000;"
         offset="1.0000000"
         id="stop94" />
    </radialGradient>
    <linearGradient
       id="linearGradient975"
       xlink:href="#defitem17"
       x1="21.197054"
       y1="65.809898"
       x2="48.444603"
       y2="57.362999"
       gradientUnits="userSpaceOnUse" />
    <linearGradient
       id="linearGradient976"
       xlink:href="#defitem9"
       x1="44.808582"
       y1="40.005417"
       x2="16.589544"
       y2="81.307549"
       gradientUnits="userSpaceOnUse" />
    <linearGradient
       x1="68.345337"
       y1="90.622963"
       x2="101.27685"
       y2="68.024048"
       id="linearGradient977"
       xlink:href="#defitem17"
       gradientUnits="userSpaceOnUse" />
    <linearGradient
       x1="64.755302"
       y1="25.712400"
       x2="110.93200"
       y2="130.62399"
       id="linearGradient978"
       xlink:href="#defitem12"
       gradientUnits="userSpaceOnUse" />
    <linearGradient
       x1="0.69856459"
       y1="0.86896551"
       x2="0.23444976"
       y2="0.089655392"
       id="linearGradient980"
       xlink:href="#defitem12" />
    <linearGradient
       xlink:href="#defitem12"
       id="linearGradient972"
       x1="15.207300"
       y1="77.703796"
       x2="12.610400"
       y2="97.136299"
       gradientUnits="userSpaceOnUse" />
    <linearGradient
       xlink:href="#defitem10"
       id="linearGradient1075"
       x1="68.345337"
       y1="90.622963"
       x2="101.27685"
       y2="68.024048"
       gradientUnits="userSpaceOnUse" />
    <linearGradient
       xlink:href="#defitem24"
       id="linearGradient1076"
       x1="87.698097"
       y1="51.387012"
       x2="85.953598"
       y2="52.866299"
       gradientUnits="userSpaceOnUse" />
    <linearGradient
       xlink:href="#defitem3"
       id="linearGradient1077"
       x1="0.23456790"
       y1="0.91034460"
       x2="0.51851851"
       y2="0.041379072" />
  </defs>
  <g
     id="g1023">
    <path
       d="M 4.0028500,68.868400 C 3.5433071,56.692916 14.301860,28.217828 21.259843,21.259846 C 24.803150,17.716538 39.205300,11.949800 60.721600,11.949800 C 82.237900,11.949800 95.669291,17.716538 99.212598,21.259846 C 110.67338,32.720630 116.92913,53.149609 116.01500,66.964700 C 115.33682,77.213927 87.227200,82.979200 60.721600,83.368600 C 29.188300,83.830800 4.3459178,77.957903 4.0028500,68.868400 z "
       transform="matrix(1.000000,0.000000,0.000000,-1.000000,0.000000,125.9500)"
       style="fill:url(#defitem1);fill-opacity:0.46892700;fill-rule:evenodd;stroke-width:1.2500000;stroke-linejoin:round;"
       id="path833" />
    <path
       d="M 21.710900,21.498500 L 16.833574,29.636691 C 21.964374,34.041591 38.402500,40.283100 59.918800,40.283100 C 81.435100,40.283100 100.77600,36.387750 104.91900,31.339250 C 103.66526,28.051463 100.97521,25.868531 99.003308,23.133172 C 96.892554,29.262630 80.376100,33.237700 59.606300,33.434100 C 36.675600,33.649200 27.950600,26.512000 21.710900,21.498500 z "
       transform="matrix(1.000000,0.000000,0.000000,-1.000000,0.000000,125.9500)"
       style="fill:url(#defitem0);fill-rule:evenodd;stroke-width:1.2500000;stroke-linejoin:round;"
       id="path839"
       sodipodi:nodetypes="ccccccc" />
    <path
       d="M 98.972000,22.452900 C 98.972000,16.279200 81.509700,11.268600 59.993400,11.268600 C 38.477200,11.268600 21.014700,16.279200 21.014700,22.452900 C 21.014700,28.626600 38.477200,33.637100 59.993400,33.637100 C 81.509700,33.637100 98.972000,28.626600 98.972000,22.452900 z "
       transform="matrix(1.000000,0.000000,0.000000,-1.000000,0.000000,125.9500)"
       style="fill:#747272;fill-opacity:0.75000000;fill-rule:evenodd;stroke-width:0.86876702;"
       id="path837" />
    <path
       d="M 4.0028500,68.868400 C 12.925200,55.166200 36.764700,52.995500 60.402900,52.578400 C 84.041200,52.320700 106.66600,58.398500 116.01500,66.964700 C 118.40000,76.973200 87.067800,83.138500 60.562300,83.527900 C 29.029000,83.990100 2.4354800,75.719900 4.0028500,68.868400 z "
       transform="matrix(1.000000,0.000000,0.000000,-1.000000,0.000000,125.9500)"
       style="fill:url(#defitem2);fill-opacity:0.50999999;fill-rule:evenodd;stroke-width:1.2500000;stroke-linejoin:round;"
       id="path860" />
    <path
       d="M 4.0028500,68.868400 C 6.9658819,60.010716 25.667100,55.376150 36.452150,55.280800 C 50.212150,55.341700 56.315250,69.433250 57.471150,81.141150 C 25.937850,81.603250 2.4354800,75.719900 4.0028500,68.868400 z "
       transform="matrix(1.000000,0.000000,0.000000,-1.000000,0.000000,125.9500)"
       style="opacity:0.72881359;fill:url(#defitem3);fill-opacity:0.63276798;fill-rule:evenodd;stroke-width:1.2500000;stroke-linejoin:round;"
       id="path866" />
    <path
       d="M 16.091425,95.240467 L 20.179995,101.24974 C 25.350495,106.28883 38.466420,110.95841 60.149120,110.95841 C 81.831820,110.95841 100.52542,103.34281 104.12754,96.358618 L 105.60464,93.127486 C 99.298673,99.429745 81.079620,107.18861 60.149120,107.41321 C 37.041020,107.65931 22.379425,100.97588 16.091425,95.240467 z "
       style="fill:url(#defitem4);fill-rule:evenodd;stroke-width:1.2500000;stroke-linejoin:round;"
       id="path880"
       sodipodi:nodetypes="ccccccc" />
    <path
       d="M 18.106262,98.321588 C 19.073943,100.61526 20.581462,102.72898 22.358900,104.39284 C 27.489700,109.43194 38.727300,114.30574 60.243600,114.30574 C 81.759900,114.30574 94.903011,109.28167 99.045811,103.50627 C 101.26219,101.57500 103.21957,99.103899 103.99638,96.092959 C 97.300074,103.61056 81.013500,110.53594 60.243600,110.76054 C 37.312900,111.00664 24.345862,104.05699 18.106262,98.321588 z "
       style="fill:url(#defitem5);fill-rule:evenodd;stroke-width:1.2500000;stroke-linejoin:round;"
       id="path838"
       sodipodi:nodetypes="ccccccc" />
    <path
       d="M 60.081506,43.312500 C 44.821782,43.312500 30.992244,44.907500 20.927071,47.500000 C 15.894636,48.796200 11.789395,50.357000 8.8844838,52.125000 C 7.4320031,53.009000 6.3118436,53.922300 5.4797592,54.968700 C 4.7692865,55.862300 4.3425004,56.875600 4.2187500,57.937500 L 6.0472133,57.937500 C 6.1473374,57.406800 6.2586693,56.887500 6.7407683,56.281200 C 7.3772248,55.480600 8.3673692,54.657300 9.7041398,53.843700 C 12.377731,52.216600 16.397122,50.678600 21.336949,49.406200 C 31.216603,46.861600 44.928312,45.281200 60.081506,45.281200 C 75.234598,45.281300 88.978085,46.861600 98.857436,49.406200 C 103.79736,50.678700 107.75391,52.216500 110.42725,53.843700 C 111.76392,54.657400 112.78584,55.480600 113.42240,56.281200 C 113.90359,56.886600 113.98430,57.407500 114.08418,57.937500 L 115.94441,57.937500 C 115.81226,56.877300 115.39260,55.861100 114.68340,54.968700 C 113.85114,53.922200 112.69908,53.009000 111.24640,52.125000 C 108.34204,50.357000 104.23619,48.796200 99.204264,47.500000 C 89.138688,44.907500 75.341128,43.312500 60.081506,43.312500 z "
       style="fill:#ffffff;fill-rule:evenodd;stroke-width:1.4502000;"
       id="path934" />
    <g
       transform="matrix(1.000000,0.000000,0.000000,-1.000000,0.000000,125.9500)"
       id="g106"
       style="">
      <path
         d="M 60.433058,9.5016245 C 49.563206,9.5016245 40.738000,11.113271 34.089308,13.282874 C 27.440616,15.452477 22.976765,18.145416 20.651808,20.470374 C 16.843335,24.278846 12.447482,32.278063 8.8705583,41.220374 C 5.2936339,50.162685 2.5893083,59.946260 2.5893083,67.314124 C 2.5893083,70.046083 4.5380823,72.448513 7.5893083,74.501623 C 10.640534,76.554733 14.933232,78.366083 20.183058,79.876623 C 30.682709,82.897703 45.069388,84.734143 60.933058,84.501623 C 74.255886,84.305893 88.344115,82.869863 99.214308,80.157873 C 104.64941,78.801883 109.28891,77.119703 112.65181,75.064123 C 116.01471,73.008543 118.24556,70.423633 118.24556,67.314124 C 118.24556,59.946260 115.53419,50.154046 111.93306,41.220374 C 108.33193,32.286702 103.91239,24.304504 99.995558,20.532874 C 98.916878,19.494180 97.096575,18.412771 94.620558,17.220374 C 92.144541,16.027977 89.029128,14.766223 85.464308,13.626624 C 78.334667,11.347426 69.445534,9.5016245 60.433058,9.5016245 z M 60.433058,11.751624 C 69.137117,11.751624 77.830290,13.562216 84.776808,15.782874 C 88.250067,16.893203 91.288943,18.113718 93.651808,19.251624 C 96.014673,20.389530 97.731458,21.482283 98.433058,22.157874 C 101.78835,25.388784 106.30745,33.302279 109.83931,42.064124 C 113.37117,50.825969 115.99556,60.508759 115.99556,67.314124 C 115.99556,69.338953 114.49882,71.303023 111.46431,73.157873 C 108.42980,75.012723 103.98665,76.647193 98.683058,77.970373 C 88.075886,80.616743 74.084580,82.057953 60.901808,82.251623 C 45.232179,82.481303 31.014228,80.657003 20.808058,77.720373 C 15.704973,76.252053 11.581934,74.503333 8.8393083,72.657873 C 6.0966825,70.812413 4.8393083,68.943593 4.8393083,67.314124 C 4.8393083,60.508760 7.4546185,50.838348 10.964308,42.064124 C 14.473998,33.289900 18.967416,25.342266 22.245558,22.064124 C 24.141424,20.168257 28.402842,17.529276 34.808058,15.439124 C 41.213274,13.348972 49.786610,11.751624 60.433058,11.751624 z "
         style="fill:#682a00;fill-rule:evenodd;stroke-width:2.2500000;stroke-linejoin:round;"
         id="path972" />
      <path
         d="M 116.00500,78.400900 L 69.060100,99.063400 L 46.306900,47.369000 L 79.443700,32.783900 L 99.328800,40.514100 L 116.00500,78.400900 L 116.00500,78.400900 z "
         style="fill:#ffffff;stroke-width:0.41061199;"
         id="path889" />
      <path
         d="M 114.06000,77.802500 L 69.932300,97.225200 L 47.699300,46.890900 L 79.093500,33.072800 L 97.541200,40.271600 L 114.06000,77.802300 L 114.06000,77.802500 z "
         style="fill:url(#linearGradient978);stroke-width:0.41061199;"
         id="path902" />
      <path
         d="M 116.09500,78.606200 L 68.945100,99.359100 L 46.011200,47.254000 L 79.438300,32.541200 L 99.496600,40.338800 L 116.30000,78.515800 L 116.09500,78.606200 z M 115.70900,78.285900 C 115.53000,77.880700 99.235000,40.857800 99.160900,40.689500 C 98.990000,40.623000 79.620000,33.093000 79.449100,33.026600 C 79.280700,33.100700 47.006600,47.306100 46.602600,47.483900 C 46.781100,47.889600 68.996600,98.362400 69.175000,98.767700 C 69.579900,98.589500 115.30400,78.464100 115.70900,78.285900 z "
         style="fill:url(#defitem7);stroke-width:0.41061199;"
         id="path911" />
      <path
         d="M 112.14700,73.152800 L 114.18600,77.785800 L 69.919000,97.269700 L 58.070700,70.457700 C 61.344800,66.787900 65.473100,63.721400 70.319600,61.588200 C 85.653900,54.838900 103.37500,60.518500 112.14700,73.152800 z "
         style="fill:url(#linearGradient977);stroke-width:0.41061199;"
         id="path922" />
      <path
         d="M 84.981600,47.978400 L 78.519800,33.297400 L 79.256000,32.973300 L 99.148200,40.706300 L 99.530400,41.574800 L 84.981600,47.978400 L 84.981600,47.978400 z "
         style="fill:url(#defitem11);fill-opacity:0.099999972;stroke-width:0.41061199;"
         id="path1083" />
      <path
         d="M 79.443700,32.783900 L 99.328800,40.514100 L 85.521100,46.591500 L 79.443700,32.783900 z "
         style="fill:#ffffff;stroke-width:0.41061199;"
         id="path1085" />
      <path
         d="M 80.741500,33.140000 L 98.241400,39.942300 L 86.089700,45.290800 L 80.741500,33.140000 z "
         style="fill:url(#linearGradient980);stroke-width:0.41061199;"
         id="path1094" />
      <path
         d="M 85.611500,46.796800 C 85.497700,46.846900 85.365900,46.795600 85.315800,46.681900 L 79.238400,32.874200 C 79.201700,32.790900 79.218500,32.694300 79.281600,32.628300 C 79.344200,32.563500 79.440700,32.542100 79.525100,32.574500 L 99.410100,40.304800 C 99.495100,40.338500 99.551400,40.418600 99.553400,40.508900 C 99.555300,40.600200 99.502500,40.682700 99.419100,40.719400 L 85.611500,46.796800 L 85.611500,46.796800 z M 98.742800,40.527000 C 97.808800,40.164600 80.800600,33.552700 79.867100,33.189100 C 80.266400,34.096200 85.467200,45.912300 85.636000,46.295900 C 86.019600,46.127100 97.835700,40.926200 98.742800,40.527000 z "
         style="fill:url(#defitem13);stroke-width:0.41061199;"
         id="path1103" />
      <path
         d="M 95.868200,25.039000 L 43.309800,48.172500 L 66.443300,100.73100 L 119.00200,77.597400 L 95.868200,25.039000 z "
         style="fill:none;stroke-width:0.41061199;"
         id="path1116" />
      <path
         d="M 111.78711,72.612962 L 114.18600,77.785800 L 69.919000,97.269700 L 67.607831,91.871257 L 111.78711,72.612962 z "
         style="fill:url(#linearGradient1075);stroke-width:0.41061199;"
         id="path1074"
         sodipodi:nodetypes="ccccc" />
    </g>
    <g
       transform="matrix(1.000000,0.000000,0.000000,-1.000000,-0.636205,124.5832)"
       id="g122"
       style="">
      <path
         d="M 81.933400,42.722400 L 45.124000,52.887900 L 36.828400,21.074700 L 84.510100,21.539100 L 81.933400,42.722400 z "
         style="fill:#ffffff;fill-rule:evenodd;stroke-width:0.78354502;"
         id="path950" />
      <path
         d="M 79.274600,41.216500 L 47.518800,49.338800 L 41.275300,24.346300 L 81.415900,23.723300 L 79.274600,41.216500 z "
         style="fill:url(#defitem14);fill-rule:evenodd;stroke-width:0.64687002;"
         id="path952" />
      <path
         d="M 82.507600,43.204600 L 82.097300,43.315700 L 45.280600,53.483100 L 44.699400,53.657200 L 44.520500,53.032000 L 36.208500,21.237500 L 36.010600,20.436600 L 36.835400,20.458400 L 84.516100,20.916200 L 85.228600,20.927900 L 85.124200,21.606000 L 82.552600,42.799600 L 82.507600,43.204600 z M 81.358500,42.240000 L 83.805000,22.149000 L 37.637200,21.705100 L 45.577200,52.117400 L 81.358500,42.240000 z "
         style="fill:#a3a3a3;fill-rule:evenodd;stroke-width:0.78354502;"
         id="path954" />
    </g>
    <g
       transform="matrix(1.000000,0.000000,0.000000,-1.000000,0.000000,125.9500)"
       id="g126"
       style="">
      <path
         d="M 37.734200,68.731600 L 68.728100,46.423600 L 49.140800,20.018400 L 19.614000,57.460800 L 37.734200,68.731600 z "
         style="fill:#ffffff;fill-rule:evenodd;stroke-width:1.2500000;"
         id="path944" />
      <path
         d="M 38.227500,65.716100 L 64.461700,46.064800 L 48.902400,25.533900 L 23.255400,56.419100 L 38.227500,65.716100 z "
         style="fill:url(#defitem15);fill-rule:evenodd;stroke-width:1.0319600;"
         id="path946" />
      <path
         d="M 37.750000,69.481300 L 38.093800,69.231300 L 69.093800,46.918800 L 69.593800,46.575000 L 69.218800,46.043800 L 49.656200,19.637500 L 49.156200,18.981300 L 48.656200,19.637500 L 19.125000,57.075000 L 18.687500,57.637500 L 19.281200,57.981300 L 37.406200,69.262500 L 37.750000,69.481300 z M 37.718800,67.981300 L 20.531200,57.293800 L 49.125000,21.043800 L 67.843800,46.293800 L 37.718800,67.981300 z "
         style="fill:#a3a3a3;fill-rule:evenodd;stroke-width:1.2500000;"
         id="path949" />
    </g>
    <g
       transform="matrix(1.000000,0.000000,0.000000,-0.808173,2.660823,120.4190)"
       id="g130"
       style="">
      <path
         d="M 23.798500,27.722200 L 60.263000,31.571600 L 40.204600,94.970000 L 16.299200,92.891100 L 10.441800,74.654600 L 23.798500,27.722200 L 23.798500,27.722200 z "
         style="fill:#ffffff;stroke-width:0.42452899;"
         id="path964" />
      <path
         d="M 24.463000,29.346800 L 58.739500,32.965200 L 39.479300,93.742600 L 16.553333,91.736027 L 11.231500,75.838200 L 24.462700,29.346800 L 24.463000,29.346800 z "
         style="fill:url(#linearGradient976);stroke-width:0.42452899;"
         id="path965" />
      <path
         d="M 23.870900,27.467900 L 60.494800,31.334100 L 40.347200,95.150000 L 16.160800,93.138500 L 10.252400,74.743100 L 23.711400,27.451000 L 23.870900,27.467900 z M 23.885600,27.993300 C 23.742700,28.495400 10.690600,74.357600 10.631300,74.566200 C 10.681600,74.722900 16.387300,92.487100 16.437600,92.643800 C 16.568400,92.657600 39.636900,94.574500 39.950800,94.607700 C 40.093800,94.105100 59.888200,32.311100 60.031100,31.809100 C 59.716600,31.775900 24.200100,28.026500 23.885600,27.993300 z "
         style="fill:url(#defitem16);stroke-width:0.42452899;"
         id="path966" />
      <path
         d="M 22.754400,35.036600 L 24.387700,29.297500 L 58.772300,32.927300 L 47.955100,66.712700 C 44.115400,68.689700 41.571200,69.062800 37.806700,68.665400 C 25.895600,67.408000 19.972200,52.374700 22.754400,35.036600 z "
         style="fill:url(#linearGradient975);stroke-width:0.42452899;"
         id="path967" />
      <path
         d="M 22.254700,74.673000 L 17.079000,92.859200 L 16.507200,92.798900 L 10.647700,74.555800 L 10.953800,73.480100 L 22.254700,74.673000 L 22.254700,74.673000 z "
         style="fill:url(#defitem18);fill-opacity:0.099999972;stroke-width:0.42452899;"
         id="path974" />
      <path
         d="M 16.299200,92.891100 L 10.441800,74.654600 L 21.167000,75.786800 L 16.299200,92.891100 z "
         style="fill:#ffffff;stroke-width:0.42452899;"
         id="path975" />
      <path
         d="M 15.830600,91.850400 L 10.675400,75.802100 L 20.114300,76.798500 L 15.830600,91.850400 z "
         style="fill:url(#linearGradient972);stroke-width:0.42452899;"
         id="path976" />
      <path
         d="M 21.239400,75.532500 C 21.327700,75.541800 21.366600,75.662800 21.326500,75.803700 L 16.458700,92.908000 C 16.429300,93.011200 16.364400,93.099700 16.293100,93.133100 C 16.222800,93.165500 16.160100,93.136300 16.135100,93.059300 L 10.277700,74.822800 C 10.253000,74.744200 10.270300,74.633900 10.321800,74.541900 C 10.373900,74.448900 10.449400,74.393500 10.514200,74.400300 L 21.239400,75.532500 L 21.239400,75.532500 z M 10.754400,74.949600 C 11.029900,75.805400 16.039900,91.403600 16.314500,92.260400 C 16.634300,91.136800 20.800000,76.499400 20.935200,76.024300 C 20.637300,75.992900 11.459000,75.024000 10.754400,74.949600 z "
         style="fill:url(#defitem20);stroke-width:0.42452899;"
         id="path977" />
    </g>
    <g
       transform="matrix(1.000000,0.000000,0.000000,-1.000000,0.000000,125.9500)"
       id="g140"
       style="">
      <path
         d="M 4.8581084,67.238621 C 5.1895647,54.919495 12.931379,35.939315 16.664113,30.224384 C 25.311025,23.194700 38.748146,18.481651 60.345290,18.481651 C 78.775997,18.640702 98.634220,25.592362 105.53577,32.870477 C 110.45437,43.237136 115.81969,55.434416 115.93476,67.378081 C 113.15089,58.705812 86.718200,51.928700 60.212600,52.318100 C 31.018600,53.320100 11.948950,59.551719 4.8581084,67.238621 z "
         style="opacity:0.84745765;fill:url(#defitem21);fill-opacity:0.51412398;fill-rule:evenodd;stroke-width:1.2500000;stroke-linejoin:round;"
         id="path930"
         sodipodi:nodetypes="ccccccc" />
      <path
         d="M 116.08567,67.174734 C 115.69154,55.259181 110.37903,41.705506 105.47734,32.758703 C 103.88083,30.910077 99.253881,27.928233 97.536627,27.210565 C 103.09745,37.754277 108.73341,49.089095 108.99092,60.295720 L 116.08567,67.174734 z "
         style="fill:url(#defitem22);fill-rule:evenodd;stroke-width:1.2500000;"
         id="path865"
         sodipodi:nodetypes="ccccc" />
      <path
         d="M 4.9537205,68.065284 C 3.9730383,59.289888 11.208569,39.487700 16.833588,29.678567 C 20.250126,26.383739 24.453266,24.446224 28.859507,22.590963 C 22.515061,33.769612 12.876981,48.679555 12.548160,59.701955 L 4.9537205,68.065284 z "
         style="fill:url(#defitem23);fill-rule:evenodd;stroke-width:1.2500000;"
         id="path863"
         sodipodi:nodetypes="ccccc" />
      <path
         d="M 5.0239583,68.154795 C 5.2766704,67.263575 6.0490177,64.855378 6.8747993,63.801522 C 7.7005411,62.747666 8.1809072,62.026936 9.6223159,61.136722 C 12.505084,59.356295 16.578931,57.784524 21.573104,56.479214 C 31.561553,53.868491 45.285771,52.293800 60.429072,52.293800 C 75.572374,52.293800 89.264758,53.868491 99.253605,56.479214 C 104.24718,57.784524 108.32173,59.356295 111.20395,61.136722 C 112.64555,62.026936 113.78882,63.009595 114.61475,64.063450 C 115.44067,65.117206 115.99128,66.309226 115.99128,67.588052 C 115.99128,67.776467 115.88818,67.938397 115.86615,68.122985 L 114.02008,68.122985 C 114.05212,67.950884 114.23934,67.757031 114.23934,67.588052 C 114.23934,66.894813 113.99505,66.159783 113.36336,65.353656 C 112.73165,64.547429 111.71752,63.686922 110.39104,62.867604 C 107.73808,61.228966 103.81170,59.743196 98.909423,58.461852 C 89.105379,55.899266 75.466656,54.276338 60.429072,54.276338 C 45.391289,54.276338 31.784201,55.899165 21.979860,58.461852 C 17.077688,59.743196 13.309906,61.339451 10.656695,62.978089 C 9.3301140,63.797407 8.1265465,64.547429 7.4949415,65.353656 C 6.8632364,66.159783 6.0787152,67.467498 6.0787152,68.160636 L 5.0239583,68.154795 z "
         style="fill:#ffffff;fill-rule:evenodd;stroke-width:1.4502000;"
         id="path935"
         sodipodi:nodetypes="ccccccccccccccccccccc" />
    </g>
    <g
       transform="matrix(1.000000,0.000000,0.000000,-1.000000,0.000000,125.9500)"
       id="g145"
       style="">
      <path
         d="M 87.624360,53.291152 L 81.081830,49.957448 C 81.499644,46.834029 88.437673,47.507813 89.732721,49.706000 C 90.585955,51.199300 88.221860,53.012352 87.624360,53.291152 z "
         style="fill-opacity:0.27659574;fill-rule:evenodd;stroke-width:1.2500000;"
         id="path979"
         sodipodi:nodetypes="cccc" />
      <path
         d="M 54.468800,123.20000 C 45.882500,123.20000 38.686200,118.65700 34.218800,111.26300 C 29.751300,103.86800 27.778700,93.716500 28.750000,81.856300 L 33.721800,82.556500 C 33.066400,93.056200 34.765400,102.78800 38.375000,108.76300 C 42.135800,114.98700 47.532600,118.32500 54.468800,118.32500 C 61.639600,118.17700 66.660700,115.73600 70.625000,111.79400 C 74.589300,107.85100 77.389400,102.27600 79.281200,95.856300 C 82.690900,84.287100 81.669900,64.690300 81.710600,53.626200 C 76.523700,47.004000 94.226400,48.385200 86.904600,53.675800 C 86.920700,65.166100 88.049300,83.385400 83.968800,97.231300 C 81.928500,104.15400 78.837500,110.51400 74.062500,115.26300 C 69.287500,120.01100 62.764200,123.02900 54.500000,123.20000 C 54.489600,123.20000 54.479200,123.20000 54.468800,123.20000 z "
         style="fill:#ffaa00;fill-rule:evenodd;stroke-width:4.8750000;stroke-linejoin:round;"
         id="path873" />
      <path
         d="M 86.259472,53.109244 C 86.578172,52.020544 86.250485,50.777714 84.219085,50.007614 C 85.931885,49.848314 87.568873,50.686194 87.681225,51.048413 C 88.015988,52.127677 86.856972,52.830444 86.259472,53.109244 z "
         style="fill:url(#linearGradient1076);fill-rule:evenodd;stroke-width:1.2500000;"
         id="path875" />
      <path
         d="M 82.159200,50.255000 C 81.945900,51.276200 82.076044,52.451715 83.295744,53.465015 C 82.189044,53.256015 81.544071,52.100215 81.516771,51.679315 C 81.493771,51.358815 81.759300,50.516500 82.159200,50.255000 z "
         style="fill:url(#linearGradient1077);fill-rule:evenodd;stroke-width:1.2500000;fill-opacity:1.0000000;"
         id="path877" />
      <path
         d="M 33.852600,105.04600 C 36.589800,112.88700 44.254700,119.87700 54.402000,118.98100 C 48.034000,118.56200 38.371000,112.25200 35.727300,104.38400 C 33.204700,96.395400 32.894200,87.415400 32.979000,83.012900 C 31.171900,90.597700 31.594200,97.844200 33.852600,105.04600 z "
         style="fill:url(#defitem26);fill-rule:evenodd;stroke-width:1.2500000;"
         id="path879" />
      <path
         d="M 86.406300,53.867400 C 86.907100,65.724800 86.857100,91.603200 82.748700,98.991300 C 85.837300,89.578200 85.825200,68.002100 84.959200,53.803400 L 86.406300,53.867400 z "
         style="fill:url(#defitem27);fill-rule:evenodd;stroke-width:1.2500000;"
         id="path883" />
      <path
         d="M 80.247800,101.02000 C 77.025300,109.81600 72.323800,120.08000 60.067800,122.01000 C 49.692300,123.62000 44.800000,122.87100 36.573100,114.08800 C 43.690800,119.70300 50.536900,122.73600 59.351200,120.78400 C 71.012300,118.15600 75.261800,109.38200 78.527900,100.44000 C 82.749700,89.087600 82.885400,65.496000 82.410000,53.484800 C 84.162600,69.895500 84.010600,91.099700 80.247800,101.02000 z "
         style="fill:url(#defitem28);fill-rule:evenodd;stroke-width:1.2500000;"
         id="path885" />
      <path
         d="M 54.468800,123.70000 C 45.706200,123.70000 38.324800,119.03300 33.781200,111.51300 C 29.242700,104.00000 27.272300,93.763200 28.250000,81.825000 C 28.257600,81.686300 28.322500,81.557100 28.429200,81.468100 C 28.535900,81.379200 28.674700,81.338700 28.812500,81.356300 L 33.781200,82.075000 C 34.032700,82.106700 34.220700,82.321500 34.218800,82.575000 C 33.567800,93.001900 35.291300,102.68400 38.812500,108.51300 C 42.504700,114.62400 47.693000,117.82500 54.468800,117.82500 C 61.531000,117.67900 66.393500,115.31700 70.281200,111.45000 C 74.161900,107.59100 76.936200,102.06600 78.812500,95.700000 C 82.163700,84.329200 81.182700,64.841400 81.218800,53.731300 C 80.648200,52.946300 80.280300,52.209900 80.250000,51.543800 C 80.216700,50.811300 80.533900,50.169700 81.031200,49.731300 C 82.026000,48.854400 83.606800,48.605100 85.125000,48.700000 C 86.643200,48.794900 88.153600,49.188100 88.875000,50.200000 C 89.235700,50.706000 89.313900,51.413100 89.031200,52.075000 C 88.783100,52.656100 88.169800,53.226000 87.406200,53.825000 C 87.430600,65.291000 88.543400,83.455800 84.437500,97.387500 C 82.382000,104.36200 79.263000,110.77600 74.406200,115.60600 C 69.544900,120.44100 62.880400,123.52700 54.500000,123.70000 C 54.487400,123.70000 54.481300,123.70000 54.468800,123.70000 z M 54.468800,122.70000 C 54.477000,122.70000 54.491700,122.70000 54.500000,122.70000 C 62.647900,122.53200 69.030100,119.58200 73.718800,114.91900 C 78.412000,110.25100 81.474900,103.94600 83.500000,97.075000 C 87.539900,83.367200 86.422400,65.191100 86.406200,53.668800 C 86.408600,53.505800 86.490200,53.354200 86.625000,53.262500 C 87.497300,52.632200 87.954100,52.100400 88.125000,51.700000 C 88.295900,51.299600 88.219500,51.057800 88.031200,50.793800 C 87.654800,50.265700 86.406400,49.752700 85.062500,49.668800 C 83.718600,49.584800 82.324400,49.919900 81.687500,50.481300 C 81.369100,50.761900 81.230000,51.042400 81.250000,51.481300 C 81.270000,51.920100 81.485400,52.548300 82.093800,53.325000 C 82.170300,53.411600 82.214400,53.522000 82.218800,53.637500 C 82.178300,64.668700 83.210600,84.270500 79.750000,96.012500 C 77.842500,102.48500 75.016700,108.11200 70.968800,112.13800 C 66.928000,116.15600 61.748100,118.67500 54.468800,118.82500 C 47.372200,118.82500 41.766900,115.35100 37.937500,109.01300 C 34.295500,102.98400 32.638500,93.370300 33.218800,82.981300 L 29.250000,82.418800 C 28.390200,93.963400 30.328500,103.84900 34.656200,111.01300 C 39.047700,118.28100 46.058900,122.70000 54.468800,122.70000 z "
         style="fill:#6a2d02;fill-opacity:0.99402511;fill-rule:evenodd;stroke-linejoin:round;"
         id="path870" />
    </g>
  </g>
</svg>
